<?xml version="1.0" encoding="UTF-8" standalone="no"?>
<svg width="78px" height="90px" viewBox="0 0 78 90" version="1.1" xmlns="http://www.w3.org/2000/svg" xmlns:xlink="http://www.w3.org/1999/xlink" xmlns:sketch="http://www.bohemiancoding.com/sketch/ns">
    <!-- Generator: Sketch 3.4.2 (15857) - http://www.bohemiancoding.com/sketch -->
    <title>evernote2</title>
    <desc>Created with Sketch.</desc>
    <defs></defs>
    <g id="Page-1" stroke="none" stroke-width="1" fill="none" fill-rule="evenodd" sketch:type="MSPage">
        <g id="evernote2" sketch:type="MSLayerGroup" fill="#696969">
            <path d="M18.755,19.396 L4.167,19.379 L22.444,0.99 L22.449,15.821 L18.755,19.396 L18.755,19.396 Z M70.434,12.091 C68.878,9.411 60.746,6.323 56.522,6.323 L45.643,6.323 C45.643,6.323 42.15,0 33.937,0 C25.719,0 26.271,3.663 26.271,6.791 L26.271,19.437 L22.546,23.369 L5.346,23.369 C5.346,23.369 0.5,26.574 0.5,33.502 C0.5,40.431 2.65,64.572 17.085,66.807 C34.165,69.453 37.09,61.514 37.09,60.561 C37.09,56.54 37.192,50.45 37.192,50.45 C37.192,50.45 42.193,60.006 49.747,60.006 C57.3,60.006 61.691,64.345 61.691,68.814 L61.691,77.082 C61.691,77.082 61.41,82.257 56.97,82.257 L47.491,82.257 C47.491,82.257 44.38,79.834 44.38,76.485 C44.38,73.134 45.901,72.223 47.677,72.223 C49.453,72.223 50.91,72.429 50.91,72.429 L50.91,65.381 C50.91,65.381 36.606,65.288 36.606,76.241 C36.607,87.188 44.087,90 50.085,90 L59.856,90 C59.856,90 77.5,87.73 77.5,52.875 C77.5,18.016 71.988,14.773 70.434,12.091 L70.434,12.091 Z M52.889,43.337 C52.889,43.337 53.747,37.589 57.08,37.589 C60.413,37.589 64.991,45.266 64.991,45.266 C64.991,45.266 54.549,43.337 52.889,43.337 L52.889,43.337 Z" id="Evernote" sketch:type="MSShapeGroup"></path>
        </g>
    </g>
</svg>